<svg version="1.2" xmlns="http://www.w3.org/2000/svg" viewBox="0 0 400 200" width="400" height="200">
	<g id="Folder 1">
		
		<path fill="#e060a0" aria-label="CHECK MATE" d="m78.4 26h-35c-19.3 0-35 15.7-35 35 0 19.3 15.7 35 35 35h35v-33.2h-12.6v-3.6h12.6zm44.9 70h32l-0.1-70h-31.9v12.6c0 0-1.9 0-3.6 0v-12.6h-31.9v70h31.9v-12.6c0 0 1.7 0 3.6 0zm110.2-30.5v-9h-12.7v-3.5h12.7v-27h-67.5v70h67.5v-27h-12.7v-3.5zm77.9-39.5h-35c-19.3 0-35 15.7-35 35 0 19.3 15.7 35 35 35h35v-33.2h-12.6v-3.6h12.6zm80.6 0h-70v70h70l-19.2-35zm-232 80l-35 19.2-35-19.2v70h70zm83.5 70l-38.5-70-38.4 70zm70.7-70h-70v35h9.1v35h51.8v-35h9.1zm77.3 39.5v-9h-12.7v-3.5h12.7v-27h-67.5v70h67.5v-27h-12.7v-3.5z"/>
		
		<path fill="#e060a0" transform="matrix(0.168,0,0,0.168,0.3,97)" d="M400,48H112a64.07,64.07,0,0,0-64,64V400a64.07,64.07,0,0,0,64,64H400a64.07,64.07,0,0,0,64-64V112A64.07,64.07,0,0,0,400,48ZM364.25,186.29l-134.4,160a16,16,0,0,1-12,5.71h-.27a16,16,0,0,1-11.89-5.3l-57.6-64a16,16,0,1,1,23.78-21.4l45.29,50.32L339.75,165.71a16,16,0,0,1,24.5,20.58Z"/>
		
	</g>
</svg>
